<?xml version="1.0"?>
<!DOCTYPE svg PUBLIC "-//W3C//DTD SVG 1.1//EN" "http://www.w3.org/Graphics/SVG/1.1/DTD/svg11.dtd">
<svg width="17.07061635255949mm" height="10.434717967697274mm" viewBox="0 0 17.07061635255949 10.434717967697274" xmlns="http://www.w3.org/2000/svg" version="1.1">
<g id="Sketch003" transform="translate(-3.296743,10.267359) scale(1,-1)">
<path id="Sketch003_w0000"  d="M 18.048592278909105 6.385625064973052 A 0.3 0.3 0 0 1 18.372 6.26792L 19.135004868539916 6.472371179170253 A 20.2 20.2 0 0 1 17.4937 10.1L 3.4641016151377553 2.0 A 4 4 0 0 0 4 9.79717e-16L 20.2 -7.727323086144461e-16 A 20.2 20.2 0 0 1 19.8076 3.96226L 19.04456464446625 3.757813639207653 A 0.3 0.3 0 0 1 18.8234 3.49418L 18.67284263405358 1.7738532771757023 A 0.3 0.3 0 0 0 18.374 1.5L 9.14575993143775 1.4999999999999998 A 0.3 0.3 0 0 0 8.85598 1.72235L 8.693332436601615 2.3293714059226867 L 8.530682689652197 2.9363885253761293 A 0.3 0.3 0 0 0 8.67046 3.27384L 16.662337107260687 7.887954006636369 A 0.3 0.3 0 0 0 17.0581 7.80022L 18.048592278909105 6.385625064973052 " stroke="#000000" stroke-width="0.35 px" style="stroke-width:0.35;stroke-miterlimit:4;stroke-dasharray:none;fill:none;fill-rule: evenodd "/>
<title>b'StatorSketch'</title>
</g>
<g id="Sketch011" transform="translate(-3.296743,10.267359) scale(1,-1)">
<path id="Sketch011_w0000"  d="M 17.53267064422952 6.24738427960291 L 16.751963535932394 7.362349580166852 L 9.053365370458753 2.9175618569478923 L 9.299225329033542 2.0 L 18.18880077547147 2.0 L 18.307430313889903 3.355941828775088 L 17.53267064422952 6.24738427960291 " stroke="#000000" stroke-width="0.35 px" style="stroke-width:0.35;stroke-miterlimit:4;stroke-dasharray:none;fill:none;fill-rule: evenodd "/>
<title>b'TerminalSketch'</title>
</g>
</svg>